<?xml version="1.0" encoding="utf-8"?>
<!-- Generator: Adobe Illustrator 23.0.6, SVG Export Plug-In . SVG Version: 6.00 Build 0)  -->
<svg version="1.1" id="Layer_1" xmlns="http://www.w3.org/2000/svg" xmlns:xlink="http://www.w3.org/1999/xlink" x="0px" y="0px"
	 viewBox="0 0 395.96 959.91" style="enable-background:new 0 0 395.96 959.91;" xml:space="preserve">
<style type="text/css">
	.st0{
        fill:#28C53B;
        animation-name: example;
        animation-duration: 2s;
        animation-timing-function: ease-in-out;
        animation-iteration-count: infinite;    
        
    }
    
    @keyframes example {
        0% {fill: #3ACD99;}
        50% {fill: #0897B6;}
        100%{fill: #3ACD99;}
    }
</style>
<path class="st0" d="M382.32,279.58c-82.51-81.55-164.35-163.77-246.41-245.77C86.38-15.68,23.17-9.55,1.13,60.18
	c0,207.68,0,415.36,0,629.98c13.9-13.04,22.85-20.99,31.31-29.44c106.72-106.61,338.45-335.51,347.77-344.28
	C401.19,295.46,397.18,294.26,382.32,279.58z M221.1,306.81c-3.06,2.87-79.03,77.92-114.02,112.88c-2.77,2.77-5.71,5.38-10.26,9.65
	c0-70.37,0-138.46,0-206.55c7.23-22.86,27.95-24.87,44.19-8.64c26.91,26.88,53.74,53.84,80.79,80.58
	C226.67,299.54,227.98,299.93,221.1,306.81z"/>
<polyline points="1.13,701.57 223.62,479.08 1.03,958.03 "/>
</svg>
